<svg width="130" height="88" fill="none" xmlns="http://www.w3.org/2000/svg"><path d="M39.96 55.816H10.728L4.32 70H.36l23.184-50.4h3.672L50.4 70h-3.96l-6.48-14.184Zm-1.368-3.096L25.344 23.632 12.168 52.72h26.424Z" fill="#fff"/><path d="M40.5 33.68 26.34 65h-3.06L9.18 33.68h3.18L24.84 61.7l12.6-28.02h3.06Zm21.038.42h3.51V53h-3.51V34.1Zm25.416 0V53h-2.889L73.643 40.202V53H70.16V34.1h2.89l10.42 12.798V34.1h3.483Zm8.575 2.943v5.751h9.125v2.97h-9.126V53h-3.51V34.1h13.797v2.943H95.528Zm22.299 16.227c-1.926 0-3.663-.414-5.211-1.242-1.548-.846-2.763-2.007-3.645-3.483-.882-1.494-1.323-3.159-1.323-4.995 0-1.836.441-3.492 1.323-4.968a9.174 9.174 0 0 1 3.645-3.483c1.548-.846 3.285-1.269 5.211-1.269 1.926 0 3.663.423 5.211 1.269 1.548.828 2.763 1.98 3.645 3.456.882 1.476 1.323 3.141 1.323 4.995s-.441 3.519-1.323 4.995c-.882 1.476-2.097 2.637-3.645 3.483-1.548.828-3.285 1.242-5.211 1.242Zm0-3.078c1.26 0 2.394-.279 3.402-.837a6.275 6.275 0 0 0 2.376-2.376c.576-1.026.864-2.169.864-3.429 0-1.26-.288-2.394-.864-3.402a6.033 6.033 0 0 0-2.376-2.376c-1.008-.576-2.142-.864-3.402-.864-1.26 0-2.394.288-3.402.864a6.033 6.033 0 0 0-2.376 2.376c-.576 1.008-.864 2.142-.864 3.402 0 1.26.288 2.403.864 3.429a6.275 6.275 0 0 0 2.376 2.376c1.008.558 2.142.837 3.402.837Z" fill="#fff"/></svg>